<svg width="20" height="17" viewBox="0 0 20 17" version="1.1" xmlns="http://www.w3.org/2000/svg" xmlns:xlink="http://www.w3.org/1999/xlink">
<title>user-plus</title>
<desc>Created using Figma</desc>
<g id="Canvas" transform="translate(1832 -4614)">
<g id="user-plus">
<g id="Vector">
<use xlink:href="#path0_stroke" transform="translate(-1831 4625)" fill="#E6405E"/>
</g>
<g id="Vector">
<use xlink:href="#path1_stroke" transform="translate(-1828.14 4615)" fill="#E6405E"/>
</g>
<g id="Vector">
<use xlink:href="#path2_stroke" transform="translate(-1815.45 4619.17)" fill="#E6405E"/>
</g>
<g id="Vector">
<use xlink:href="#path3_stroke" transform="translate(-1817.91 4621.67)" fill="#E6405E"/>
</g>
</g>
</g>
<defs>
<path id="path0_stroke" d="M 11.2727 5C 11.2727 5.55228 11.7204 6 12.2727 6C 12.825 6 13.2727 5.55228 13.2727 5L 11.2727 5ZM 12.2727 3.33333L 13.2727 3.33333L 12.2727 3.33333ZM 9 1.4803e-15L 9 -1L 9 1.4803e-15ZM 3.27273 1.4803e-15L 3.27273 -1L 3.27273 1.4803e-15ZM 6.35855e-16 3.33333L -1 3.33333L 6.35855e-16 3.33333ZM -1 5C -1 5.55228 -0.552285 6 6.35855e-16 6C 0.552285 6 1 5.55228 1 5L -1 5ZM 13.2727 5L 13.2727 3.33333L 11.2727 3.33333L 11.2727 5L 13.2727 5ZM 13.2727 3.33333C 13.2727 2.18992 12.8269 1.08973 12.0277 0.275721L 10.6006 1.6769C 11.0289 2.11314 11.2727 2.70863 11.2727 3.33333L 13.2727 3.33333ZM 12.0277 0.275721C 11.2279 -0.538909 10.1392 -1 9 -1L 9 1C 9.59678 1 10.1729 1.24129 10.6006 1.6769L 12.0277 0.275721ZM 9 -1L 3.27273 -1L 3.27273 1L 9 1L 9 -1ZM 3.27273 -1C 2.13355 -1 1.04481 -0.538909 0.244996 0.275721L 1.67212 1.6769C 2.09982 1.24129 2.67595 1 3.27273 1L 3.27273 -1ZM 0.244996 0.275721C -0.554213 1.08973 -1 2.18992 -1 3.33333L 1 3.33333C 1 2.70863 1.24382 2.11314 1.67212 1.6769L 0.244996 0.275721ZM -1 3.33333L -1 5L 1 5L 1 3.33333L -1 3.33333Z"/>
<path id="path1_stroke" d="M 5.54545 3.33333C 5.54545 4.63938 4.5107 5.66667 3.27273 5.66667L 3.27273 7.66667C 5.64971 7.66667 7.54545 5.70919 7.54545 3.33333L 5.54545 3.33333ZM 3.27273 5.66667C 2.03475 5.66667 1 4.63938 1 3.33333L -1 3.33333C -1 5.70919 0.895746 7.66667 3.27273 7.66667L 3.27273 5.66667ZM 1 3.33333C 1 2.02729 2.03475 1 3.27273 1L 3.27273 -1C 0.895746 -1 -1 0.957477 -1 3.33333L 1 3.33333ZM 3.27273 1C 4.5107 1 5.54545 2.02729 5.54545 3.33333L 7.54545 3.33333C 7.54545 0.957477 5.64971 -1 3.27273 -1L 3.27273 1Z"/>
<path id="path2_stroke" d="M 1 0C 1 -0.552285 0.552285 -1 0 -1C -0.552285 -1 -1 -0.552285 -1 0L 1 0ZM -1 5C -1 5.55228 -0.552285 6 0 6C 0.552285 6 1 5.55228 1 5L -1 5ZM -1 0L -1 5L 1 5L 1 0L -1 0Z"/>
<path id="path3_stroke" d="M 4.90909 1C 5.46138 1 5.90909 0.552285 5.90909 0C 5.90909 -0.552285 5.46138 -1 4.90909 -1L 4.90909 1ZM 0 -1C -0.552285 -1 -1 -0.552285 -1 0C -1 0.552285 -0.552285 1 0 1L 0 -1ZM 4.90909 -1L 0 -1L 0 1L 4.90909 1L 4.90909 -1Z"/>
</defs>
</svg>
