<svg width="17" height="17" viewBox="0 0 17 17" version="1.1" xmlns="http://www.w3.org/2000/svg" xmlns:xlink="http://www.w3.org/1999/xlink">
<title>x</title>
<desc>Created using Figma</desc>
<g id="Canvas" transform="translate(1213 -3675)">
<g id="x">
<g id="Vector">
<use xlink:href="#path0_stroke" transform="translate(-1211 3677)" fill="#E6405E"/>
</g>
<g id="Vector">
<use xlink:href="#path1_stroke" transform="translate(-1211 3677)" fill="#E6405E"/>
</g>
</g>
</g>
<defs>
<path id="path0_stroke" d="M 14.4142 1.41421C 15.1953 0.633165 15.1953 -0.633165 14.4142 -1.41421C 13.6332 -2.19526 12.3668 -2.19526 11.5858 -1.41421L 14.4142 1.41421ZM -1.41421 11.5858C -2.19526 12.3668 -2.19526 13.6332 -1.41421 14.4142C -0.633165 15.1953 0.633165 15.1953 1.41421 14.4142L -1.41421 11.5858ZM 11.5858 -1.41421L -1.41421 11.5858L 1.41421 14.4142L 14.4142 1.41421L 11.5858 -1.41421Z"/>
<path id="path1_stroke" d="M 1.41421 -1.41421C 0.633165 -2.19526 -0.633165 -2.19526 -1.41421 -1.41421C -2.19526 -0.633165 -2.19526 0.633165 -1.41421 1.41421L 1.41421 -1.41421ZM 11.5858 14.4142C 12.3668 15.1953 13.6332 15.1953 14.4142 14.4142C 15.1953 13.6332 15.1953 12.3668 14.4142 11.5858L 11.5858 14.4142ZM -1.41421 1.41421L 11.5858 14.4142L 14.4142 11.5858L 1.41421 -1.41421L -1.41421 1.41421Z"/>
</defs>
</svg>
